<svg width="3024" height="4032" viewBox="0 0 3024 4032" fill="none" xmlns="http://www.w3.org/2000/svg">
<path fill-rule="evenodd" clip-rule="evenodd" d="M3024 0H0V2523.36L24.5 2520C26.3335 2506.5 30 2477.5 30 2469.5C30 2461.5 32.6665 2441.83 34 2433V2395.5L46 2377L57 2389.5L64.5 2427.5V2441L74.5 2427.5V2414L81 2409L88.5 2399.5L94 2403.5L98 2414L105 2427.5L109 2433L122.5 2441L148.5 2417.5L156.5 2395.5L170 2377L177.5 2385H182.5L188 2399.5L192.5 2424L198 2409L210.5 2395.5H219V2372.5V2360L232.5 2352.5L247.5 2349L253 2360L264 2372.5V2389.5L274 2403.5L288 2414L293.5 2424L301 2409L322 2377L333 2372.5V2349L339 2339H351.5L354 2341L361.5 2328L368.5 2323L373.5 2334L381.5 2328L384 2336.5L390.5 2341V2372.5L410 2385L431.5 2417.5L442.5 2424L460.5 2403.5V2389.5V2377L462.5 2370H471.5L482.5 2366L491.5 2356.5L502 2341L508.5 2323L502 2304.5L515.5 2298.5L526.5 2304.5H535.5L539 2282V2273.5L554.5 2282L565.5 2298.5L571 2273.5L583 2290L591.5 2312L596.5 2304.5L609 2334L627.5 2377L650 2414L668 2461.5L682.5 2499.5L699.5 2403.5L717 2348.5L740 2312L760 2290V2265.5L754 2256.5L764 2242L778.5 2236H790.5L800.5 2245V2210.5L796 2194.5L800.5 2186.5H813.5L830.5 2194.5L851 2215.5L855.5 2210.5V2194.5L851 2181V2174H859L882 2189.5L896.5 2207.5L904 2225L911.5 2230.5L907.5 2219.5L901 2210.5L906 2207.5L914 2213.5L927.5 2236L948.5 2273.5L956 2312L959 2298.5L957.5 2277L967.5 2284L986 2314L1000 2363L1005.5 2382.5H1010L1036 2432L1051.5 2480L1066 2490L1077 2501.5L1096 2544.5L1102.5 2567.5L1109 2544.5L1102.5 2529L1109 2521.5L1114 2510L1116.5 2515.5H1126L1144.5 2457.5L1179 2348.5L1194 2312L1190 2298.5L1201.5 2288L1211.5 2262.5L1226.5 2247L1265 2192.5L1270 2179.5L1265 2165L1248 2160L1253 2146.5L1285 2126.5L1303.5 2121.5L1325 2126.5L1332.5 2134L1346.5 2108L1350.5 2066.5L1338.5 2058L1332.5 2046.5V2038H1356.5H1376L1401 2052.5L1416.5 2079L1428.5 2102L1439 2090.5L1449.5 2052.5L1444 2027.5L1432 2010.5L1439 2002.5L1461.5 2010.5L1486.5 2024L1504 2046.5L1515 2079L1531.5 2116H1539.5L1556.5 2090.5L1562.5 2058V2038L1556.5 2020H1562.5L1582 2038L1605.5 2073L1619 2119.5L1625 2160L1630 2190L1639.5 2199.5L1655.5 2190C1658.33 2186 1664.1 2177.4 1664.5 2175C1664.9 2172.6 1669.67 2153 1672 2143.5V2119.5L1664.5 2107L1672 2098.5L1680.5 2107L1709 2152.5L1715.5 2175L1725.5 2217L1733.5 2270.5L1738.5 2303.5L1745.5 2321L1753 2328.5L1766 2321L1775.5 2288V2252L1770 2231.5L1775.5 2228L1792 2238L1811 2270.5L1828 2321L1835.5 2355L1839.5 2393.5V2422.5L1847 2452L1855 2466.5L1878 2485L1889.5 2466.5C1891.17 2454.17 1894.5 2428.8 1894.5 2426C1894.5 2423.2 1891.17 2398.17 1889.5 2386H1901L1918 2393.5L1949.5 2431L1978.5 2479.5L1993 2534L2011.5 2582.5L2025 2605.5L2040 2614.5C2042.67 2611.67 2048.5 2605.1 2050.5 2601.5C2052.5 2597.9 2059 2581.67 2062 2574L2055.5 2545.5L2040 2534L2025 2529V2524.5H2011.5V2518.5L2025 2509L2027.5 2492L2037.5 2490L2050.5 2492L2055.5 2496L2050.5 2483L2055.5 2461.5L2050.5 2397L2055.5 2336L2053.5 2325L2027.5 2285.5L2017.5 2288.5L2007.5 2301L2000.5 2328.5L2005.5 2362.5V2379.5H1996.5L1984 2354.5L1961.5 2292.5L1955.5 2257.5V2238L1940.5 2185L1929 2164.5L1899 2119.5L1891 2135V2175V2192H1881.5L1877.5 2187.5L1863 2130.5L1855.5 2077L1852.5 2029L1855.5 2014.5L1843 1959.5H1836.5L1831 1971V1959.5L1826.5 1956L1823 1963V1956L1818.5 1959.5V1935L1812 1917V1897.5L1815 1876.5L1804.5 1865.5H1778L1752.5 1873L1718.5 1887H1699.5L1686.5 1876.5L1702.5 1870L1715.5 1843C1722.67 1829.17 1737.4 1800.7 1739 1797.5C1740.6 1794.3 1754 1777.17 1760.5 1769H1746.5L1733.5 1779.5L1739 1763.5C1746.17 1757.83 1760.5 1746.4 1760.5 1746C1760.5 1745.6 1793.17 1728.17 1809.5 1719.5L1824.5 1703.5V1679V1669.5L1819 1665.5L1804.5 1677L1757.5 1725.5L1712 1751.5L1648 1763.5L1630 1769L1620 1773.5L1626.5 1757.5L1641 1742L1668 1731.5L1699.5 1711L1719 1690.5L1733.5 1665.5L1744.5 1649H1731H1721.5L1694 1677L1660.5 1707L1630 1717.5L1591 1725.5L1575 1728L1564 1735L1572.5 1719.5L1588 1703.5L1617.5 1688.5L1597 1694.5L1551 1707L1514.5 1711C1506.67 1716.17 1491.7 1725.8 1494.5 1723C1497.3 1720.2 1502.67 1708.83 1505 1703.5L1531.5 1682.5L1566 1665.5L1591 1651L1603 1640L1625 1611L1645 1554.5L1671.5 1511L1689.5 1494L1650 1499.5H1607.5L1597 1514L1588 1516.5L1579.5 1530.5V1520.5L1586 1486.5L1597 1479C1609 1473.83 1634.2 1462.5 1639 1458.5C1643.8 1454.5 1667.67 1442.5 1679 1437L1715 1405L1737 1389.5L1695 1405L1671.5 1410H1664.5L1637 1430L1618 1433L1607.5 1427.5L1604 1410L1607.5 1397L1625 1379L1653.5 1363L1639 1351L1580 1303L1551 1264.5L1544 1218.5L1558 1195.5L1580 1178.5L1588 1182L1593.5 1189L1607.5 1223.5L1632 1264.5L1656.5 1288L1687.5 1306.5L1701.5 1312H1719H1748.5L1787.5 1303L1830.5 1285.5L1814 1276.5L1792.5 1244L1787.5 1209.5L1795.5 1182L1814 1171L1830.5 1175.5L1837 1189L1840 1213C1842.5 1218.33 1847.7 1229.4 1848.5 1231C1849.3 1232.6 1858.17 1242 1862.5 1246.5L1898.5 1254.5C1903.5 1253.83 1914.2 1251.9 1917 1249.5C1919.8 1247.1 1944.83 1233.5 1957 1227L1945 1206L1928.5 1192L1922.5 1189L1928.5 1182L1957 1185L1976 1189L2004.5 1201.5L2026.5 1189L2019 1169.5C2014.33 1160.67 2006 1143.5 2010 1145.5C2014 1147.5 2036.33 1156 2047 1160L2081 1165.5L2098 1175.5H2119C2127 1176.17 2141.3 1177.1 2134.5 1175.5C2127.7 1173.9 2112 1166.83 2105 1163.5C2097 1157 2081 1142.9 2081 1138.5C2081 1134.1 2071.67 1116.33 2067 1108L2085 1122C2093.67 1124.67 2111.4 1130.1 2113 1130.5C2114.6 1130.9 2139.67 1136 2152 1138.5L2167.5 1151.5L2179 1163.5L2199 1169.5L2205.5 1165.5L2199 1160L2183 1155.5L2170 1149L2154.5 1118L2179 1133.5L2196.5 1138.5L2218 1145.5L2236 1160L2243 1167.5L2250.5 1160L2241 1138.5L2247.5 1118L2252.5 1130.5L2262 1143L2270.5 1149L2289 1143C2296.5 1138 2311.8 1127.6 2313 1126C2314.2 1124.4 2327.17 1106.67 2333.5 1098L2355.5 1068.5C2362.67 1058.33 2377.3 1037.9 2378.5 1037.5C2379.7 1037.1 2396.33 1019 2404.5 1010L2414.5 1002L2404.5 962L2378.5 935.5L2345 917L2294 912.5L2248 930.5L2218.5 956.5L2187 996.5L2154.5 1038.5L2131 1060.5L2096 1076L2067 1074.5L2047 1069L2019 1078.5H2008L2010 1065L2025.5 1052H2041H2062.5L2085 1054.5L2108.5 1049L2139.5 1024L2163 992L2199.5 940L2230.5 910.5L2283.5 890L2316 884L2352.5 888L2378.5 899.5L2406.5 922L2422 942L2428 957L2435 970.5L2438.5 987L2463.5 975.5L2492 970.5L2520 975.5L2540 982L2554.5 994.5L2565.5 1007L2577 1020.5L2591 1022.5L2598.5 1027L2604 1039.5L2609.5 1035.5C2611.67 1039.5 2616 1047.8 2616 1049C2616 1050.2 2623 1058.83 2626.5 1063L2636.5 1071C2638.17 1069 2642.4 1065.6 2646 1068C2649.6 1070.4 2654.83 1075.67 2657 1078V1089C2659 1089.67 2663 1091.4 2663 1093C2663 1094.6 2666.67 1110.67 2668.5 1118.5C2669.67 1113.83 2672.1 1104.9 2672.5 1106.5C2672.9 1108.1 2676.67 1119.5 2678.5 1125L2685 1138V1152.5V1168L2689 1175.5L2695.5 1192.5L2689 1215L2685 1222.5L2678 1254C2677.33 1257 2676 1263.4 2676 1265V1279.5L2658.5 1311C2649.67 1320.33 2631.5 1339.4 2629.5 1341C2627.5 1342.6 2601 1353.67 2588 1359L2572 1375.5L2576.5 1381.5L2580.5 1383.5L2588 1387.5L2604 1394L2614 1400V1394H2616.5L2627 1404L2640 1419.5L2647.5 1428L2666.5 1451.5L2670.5 1464.5L2669 1469.5L2675.5 1482V1490L2679 1497.5V1505.5V1531L2675.5 1557L2670.5 1579.5L2664 1607L2661 1633.5L2655 1658V1662.5L2650 1668.5L2644.5 1662.5L2629.5 1653L2619.5 1640.5L2615 1650.5V1666L2612.5 1677.5L2606.5 1672L2589.5 1633.5V1650.5L2582.5 1653L2571.5 1630.5L2557.5 1650.5C2550.5 1657.5 2536.5 1672.1 2536.5 1674.5C2536.5 1677.5 2527.5 1698 2527 1699C2526.6 1699.8 2521.83 1708.33 2519.5 1712.5L2515.5 1709.5L2512.5 1666L2495.5 1674.5L2486 1681.5L2472.5 1703.5L2466 1690L2447 1699L2427 1714.5L2405 1738L2395.5 1753L2391 1756V1738L2397.5 1703.5L2381.5 1717.5L2378.5 1728L2375.5 1742L2373 1746L2365 1738L2338 1761L2303 1779.5L2300 1789.5L2297.5 1799.5L2295.5 1779.5C2291 1780.33 2281.7 1782.3 2280.5 1783.5C2279.3 1784.7 2270.33 1792 2266 1795.5L2254 1808.5L2244.5 1816L2243.5 1807L2262.5 1773L2282 1748L2290 1742V1732L2274.5 1742L2252 1764.5L2231 1795.5L2210 1822.5L2188 1837.5L2174.5 1843.5L2157.5 1861.5L2148.5 1873.5L2145 1870.5L2156 1847L2172 1819.5L2184 1803.5L2201.5 1776.5C2207.33 1766.17 2219.5 1744.8 2221.5 1742C2223.5 1739.2 2226.33 1730.83 2227.5 1727V1723.5L2211.5 1737L2188 1756C2184.5 1764.83 2177.2 1783 2176 1785C2174.8 1787 2166.83 1807.83 2163 1818L2141.5 1856.5L2123 1873.5L2107.5 1886V1890L2103.5 1894.5V1900L2105 1931L2114.5 1957.5L2136 1993L2146.5 2008.5L2158.5 2013.5L2169.5 2024L2179 2030.5L2186 2037.5L2197.5 2042L2209 2050.5C2211.5 2052.83 2216.7 2057.8 2217.5 2059C2218.3 2060.2 2233.83 2070.83 2241.5 2076L2256.5 2084.5L2259 2090L2287.5 2110.5L2310.5 2126.5L2332.5 2146.5L2351.5 2163L2376 2183C2385.83 2193.83 2405.2 2215.5 2404 2215.5C2402.8 2215.5 2412.17 2223.17 2417 2227L2431 2245.5L2444.5 2269.5L2454 2284.5L2477.5 2287L2499.5 2290.5L2516.5 2297L2521 2295.5L2530.5 2284.5L2537.5 2290.5L2539.5 2293L2544 2278.5L2555 2266L2557 2250L2563 2239L2584.5 2226.5H2592L2597 2222L2607 2224L2610 2228.5L2602 2239L2599.5 2253.5L2604 2258.5L2607 2261.5L2618.5 2263.5L2635.5 2276.5L2649 2295.5L2657 2313L2668 2318.5L2664.5 2297L2655 2287L2641.5 2278.5L2625 2261.5L2614.5 2233.5L2618.5 2212.5L2633 2187.5L2641.5 2178.5L2657 2162L2681 2145L2709 2142L2719 2147L2709 2154L2700 2157L2688 2174.5V2187.5L2697.5 2196L2709 2212L2715.5 2225.5L2719 2243L2732.5 2234L2755.5 2222H2767L2748 2243L2741 2257.5V2264.5L2748 2277.5L2755.5 2288L2762.5 2299.5L2767 2311L2764.5 2318.5L2784 2323C2788 2324.5 2796 2328.1 2796 2330.5C2796 2332.9 2802 2340.5 2805 2344L2808 2358.5V2380L2816.5 2386L2831 2399L2836 2414.5L2839 2435.5L2836 2447L2843 2453V2465.5L2846 2480.5V2500.5C2846 2503.7 2839.33 2517.83 2836 2524.5L2828 2532.5V2540L2831.5 2551.5L2830 2563L2820 2587.5L2810.5 2600.5L2807 2608.5V2618L2814 2632.5L2817.5 2648L2820 2665L2817.5 2678L2814 2689L2810.5 2693.5L2814 2700C2818.5 2702.83 2827.7 2708.7 2828.5 2709.5C2829.3 2710.3 2842.17 2717.17 2848.5 2720.5L2867 2725L2857.5 2729.5L2833 2736.5C2826 2736.17 2810.6 2734.9 2805 2732.5C2799.4 2730.1 2786 2723.5 2780 2720.5L2767 2709.5H2757L2742 2700C2736 2690.83 2723.9 2672.1 2723.5 2670.5C2723.1 2668.9 2719.33 2651.5 2717.5 2643L2719.5 2612C2723.17 2605.5 2730.5 2592.2 2730.5 2591C2730.5 2589.8 2735.17 2582.17 2737.5 2578.5L2734.5 2542L2730.5 2518L2725 2519.5L2711 2534L2663 2597.5L2651 2612L2640.5 2626L2626 2655L2600 2682.5L2594 2691.5V2697.5C2591.33 2701.83 2585.9 2710.8 2585.5 2712C2585.1 2713.2 2583.67 2729.17 2583 2737L2580 2766.5L2575 2790H2604.5L2613.5 2776.5L2622.5 2769H2634C2637.33 2770 2644.7 2772.1 2647.5 2772.5C2651 2773 2671 2774.5 2672.5 2774.5C2673.7 2774.5 2688.33 2775.83 2695.5 2776.5H2703.5L2716.5 2786.5L2721 2799V2810V2827L2731.5 2837.5C2735.83 2842 2744.7 2851.8 2745.5 2855C2746.3 2858.2 2755.83 2884 2760.5 2896.5V2914L2757.5 2936H3021.5L3023.99 4032H3024V0Z" fill="#D9D9D9"/>
</svg>
